<?xml version="1.0" standalone="no"?><!DOCTYPE svg PUBLIC "-//W3C//DTD SVG 1.1//EN" "http://www.w3.org/Graphics/SVG/1.1/DTD/svg11.dtd"><svg t="1651825935367" class="icon" viewBox="0 0 1024 1024" version="1.1" xmlns="http://www.w3.org/2000/svg" p-id="101491" xmlns:xlink="http://www.w3.org/1999/xlink" width="128" height="128"><defs><style type="text/css">@font-face { font-family: feedback-iconfont; src: url("//at.alicdn.com/t/font_1031158_u69w8yhxdu.woff2?t=1630033759944") format("woff2"), url("//at.alicdn.com/t/font_1031158_u69w8yhxdu.woff?t=1630033759944") format("woff"), url("//at.alicdn.com/t/font_1031158_u69w8yhxdu.ttf?t=1630033759944") format("truetype"); }
</style></defs><path d="M676 257.1H340c-0.94 0-1.864 0.064-2.8 0.072-0.92-0.008-1.828-0.072-2.752-0.072-178.9 0-324.448 145.552-324.448 324.456S155.548 906 334.448 906c0.924 0 1.832-0.064 2.752-0.072 0.936 0.008 1.86 0.072 2.8 0.072h336c181.96 0 330-145.544 330-324.444 0-178.908-148.04-324.456-330-324.456zM337.196 845.928c-147.588-1.484-267.196-119.484-267.196-264.372 0-144.9 119.608-262.9 267.196-264.384 144.552 1.488 261.704 119.484 261.704 264.384 0 144.888-117.156 262.888-261.704 264.372zM676 846h-153.928c82.724-58.856 136.828-155.416 136.828-264.444 0-109.028-54.108-205.592-136.828-264.456H676c148.884 0 270 118.632 270 264.456 0 145.812-121.116 264.444-270 264.444z" fill="#8EEDDA" opacity=".4" p-id="101492"></path><path d="M976 521.556C976 683.496 841 816 676 816H340c-165 0-300-132.504-300-294.444C40 359.6 175 227.1 340 227.1h336c165 0 300 132.5 300 294.456z" fill="#FFFFFF" p-id="101493"></path><path d="M676 257.1H340c-181.964 0-330 145.548-330 324.456 0 16.576 13.432 30 30 30a30 30 0 0 0 30-29.992c28.24 150.32 160.4 264.436 318.792 264.436 178.904 0 324.448-145.548 324.448-324.444 0-75.376-25.564-146.804-72.516-204.456H676c148.884 0 270 118.632 270 264.456 0 16.576 13.428 30 30 30s30-13.424 30-30c0-178.908-148.04-324.456-330-324.456zM94.344 521.556h-17.248C104.924 404.552 212.196 317.1 340 317.1h247.928L94.344 521.556z" fill="#6E6E96" opacity=".2" p-id="101494"></path><path d="M334.448 521.552m-294.448 0a294.448 294.448 0 1 0 588.896 0 294.448 294.448 0 1 0-588.896 0Z" fill="#8EEDDA" p-id="101495"></path><path d="M676 197.1H340c-0.94 0-1.864 0.064-2.8 0.072-0.92-0.008-1.828-0.072-2.752-0.072-178.9 0-324.448 145.552-324.448 324.456S155.548 846 334.448 846c0.924 0 1.832-0.064 2.752-0.072 0.936 0.008 1.86 0.072 2.8 0.072h336c181.96 0 330-145.544 330-324.444 0-178.908-148.04-324.456-330-324.456zM337.196 785.928c-147.588-1.484-267.196-119.484-267.196-264.372 0-144.9 119.608-262.9 267.196-264.384 144.552 1.488 261.704 119.484 261.704 264.384 0 144.888-117.156 262.888-261.704 264.372zM676 786h-153.928c82.724-58.856 136.828-155.416 136.828-264.444 0-109.028-54.108-205.592-136.828-264.456H676c148.884 0 270 118.632 270 264.456 0 145.812-121.116 264.444-270 264.444z" fill="#6E6E96" p-id="101496"></path><path d="M332.916 656.844c-47.456 0-91.4-25.712-114.684-67.092a131.64 131.64 0 0 1-16.84-64.42 30 30 0 0 1 60 0c0 12.28 3.16 24.4 9.132 35.008a71.696 71.696 0 0 0 62.392 36.516c39.44 0 71.524-32.084 71.524-71.516a71.528 71.528 0 0 0-31.556-59.332 71.14 71.14 0 0 0-39.968-12.2 30 30 0 0 1 0-60 130.892 130.892 0 0 1 73.556 22.48 131.464 131.464 0 0 1 57.968 109.052c0.004 72.508-59 131.504-131.524 131.504z" fill="#6E6E96" p-id="101497"></path><path d="M334.448 794C155.548 794 10 648.452 10 469.552a30 30 0 0 1 60 0c0 145.816 118.632 264.448 264.448 264.448 145.816 0 264.452-118.632 264.452-264.448 0-16.568 13.424-30 30-30s30 13.432 30 30c0 178.9-145.548 324.448-324.452 324.448z" fill="#6E6E96" opacity=".2" p-id="101498"></path></svg>