<?xml version="1.0" standalone="no"?><!DOCTYPE svg PUBLIC "-//W3C//DTD SVG 1.1//EN" "http://www.w3.org/Graphics/SVG/1.1/DTD/svg11.dtd"><svg t="1651823387983" class="icon" viewBox="0 0 1024 1024" version="1.1" xmlns="http://www.w3.org/2000/svg" p-id="7621" xmlns:xlink="http://www.w3.org/1999/xlink" width="128" height="128"><defs><style type="text/css">@font-face { font-family: feedback-iconfont; src: url("//at.alicdn.com/t/font_1031158_u69w8yhxdu.woff2?t=1630033759944") format("woff2"), url("//at.alicdn.com/t/font_1031158_u69w8yhxdu.woff?t=1630033759944") format("woff"), url("//at.alicdn.com/t/font_1031158_u69w8yhxdu.ttf?t=1630033759944") format("truetype"); }
</style></defs><path d="M398.24 341.28a113.76 113.76 0 1 0 227.52 0 113.76 113.76 0 0 0-227.52 0z" fill="#28D900" opacity=".15" p-id="7622"></path><path d="M816 418.56a132.64 132.64 0 0 1 0 262.72v208a19.04 19.04 0 0 1-37.92 0v-208a132.8 132.8 0 0 1 0-262.72V123.52a19.04 19.04 0 1 1 37.92 0z m-17.12 36.48h-3.52a94.72 94.72 0 1 0 3.52 0zM530.72 209.92a132.8 132.8 0 0 1 0 262.88v434.56a19.04 19.04 0 1 1-37.92 0V472.64a132.8 132.8 0 0 1 0-262.72v-86.4a19.04 19.04 0 1 1 37.92 0zM265.28 494.4a132.64 132.64 0 0 1 0 262.72v131.2a19.04 19.04 0 1 1-37.92 0v-131.2a132.8 132.8 0 0 1 0-262.72V123.52a19.04 19.04 0 1 1 37.92 0z m-13.6 36.64a17.6 17.6 0 0 1-10.72 0 94.72 94.72 0 1 0 10.72 0zM512 436.16a94.88 94.88 0 1 0 0-189.6 94.88 94.88 0 1 0 0 189.6z" fill="#28D900" p-id="7623"></path></svg>