<?xml version="1.0" standalone="no"?><!DOCTYPE svg PUBLIC "-//W3C//DTD SVG 1.1//EN" "http://www.w3.org/Graphics/SVG/1.1/DTD/svg11.dtd"><svg t="1651823051282" class="icon" viewBox="0 0 1024 1024" version="1.1" xmlns="http://www.w3.org/2000/svg" p-id="3740" xmlns:xlink="http://www.w3.org/1999/xlink" width="128" height="128"><defs><style type="text/css">@font-face { font-family: feedback-iconfont; src: url("//at.alicdn.com/t/font_1031158_u69w8yhxdu.woff2?t=1630033759944") format("woff2"), url("//at.alicdn.com/t/font_1031158_u69w8yhxdu.woff?t=1630033759944") format("woff"), url("//at.alicdn.com/t/font_1031158_u69w8yhxdu.ttf?t=1630033759944") format("truetype"); }
</style></defs><path d="M167.143 266.664v619.844c0.034 7.655 2.986 14.918 8.102 20.153 4.912 5.025 11.404 7.766 18.087 7.739h637.682c14.371 0 26.344-12.251 26.344-27.826v-619.91H167.143z m-45.678 692.559c-18.861-19.299-29.442-45.38-29.521-72.54v-695.22h840.614v695.11c0 56.725-45.249 103.026-101.544 103.026H193.556c-27.09 0.089-53.035-10.88-72.09-30.376z m671.62-921.846c19.25 0 34.91 16.962 35.103 38.024v115.607h70.209c19.377 0 35.104 17.054 35.104 38.408v38.408H91V114.116c0-42.402 31.524-76.739 69.857-76.739h632.227z m-35.105 76.816H196.067c-19.316 0.085-34.917 17.274-34.859 38.408 0 21.354 15.622 38.407 34.859 38.407H757.98v-76.815z" fill="#4CA7FF" p-id="3741"></path><path d="M280.252 383.96h323.35c20.766 0 37.6 16.834 37.6 37.6v0.634c0 20.766-16.834 37.6-37.6 37.6h-323.35c-20.766 0-37.6-16.834-37.6-37.6v-0.634c0-20.766 16.834-37.6 37.6-37.6z m0 179.746h194.399c20.765 0 37.6 16.834 37.6 37.6v0.633c0 20.766-16.835 37.6-37.6 37.6H280.252c-20.766 0-37.6-16.834-37.6-37.6v-0.633c0-20.766 16.834-37.6 37.6-37.6z" fill="#A5E8D0" p-id="3742"></path></svg>