<?xml version="1.0" standalone="no"?><!DOCTYPE svg PUBLIC "-//W3C//DTD SVG 1.1//EN" "http://www.w3.org/Graphics/SVG/1.1/DTD/svg11.dtd"><svg t="1651826746204" class="icon" viewBox="0 0 1181 1024" version="1.1" xmlns="http://www.w3.org/2000/svg" p-id="125110" xmlns:xlink="http://www.w3.org/1999/xlink" width="147.625" height="128"><defs><style type="text/css">@font-face { font-family: feedback-iconfont; src: url("//at.alicdn.com/t/font_1031158_u69w8yhxdu.woff2?t=1630033759944") format("woff2"), url("//at.alicdn.com/t/font_1031158_u69w8yhxdu.woff?t=1630033759944") format("woff"), url("//at.alicdn.com/t/font_1031158_u69w8yhxdu.ttf?t=1630033759944") format("truetype"); }
</style></defs><path d="M1129.786837 75.319122m0 56.489342l0 790.850786q0 56.489342-56.489342 56.489342l-1016.808153 0q-56.489342 0-56.489342-56.489342l0-790.850786q0-56.489342 56.489342-56.489342l1016.808153 0q56.489342 0 56.489342 56.489342Z" fill="#61729B" p-id="125111"></path><path d="M1049.007078 150.638245m0 37.659561l0 677.872103q0 37.659561-37.659561 37.659561l-893.096495 0q-37.659561 0-37.659561-37.659561l0-677.872103q0-37.659561 37.659561-37.659561l893.096495 0q37.659561 0 37.659561 37.659561Z" fill="#EDF5FF" p-id="125112"></path><path d="M634.751905 362.096681m28.244671 0l244.787148 0q28.244671 0 28.244671 28.244671l0 0q0 28.244671-28.244671 28.244671l-244.787148 0q-28.244671 0-28.244671-28.244671l0 0q0-28.244671 28.244671-28.244671Z" fill="#6AA9FF" p-id="125113"></path><path d="M634.751905 493.905146m28.244671 0l244.787148 0q28.244671 0 28.244671 28.244671l0 0q0 28.244671-28.244671 28.244671l-244.787148 0q-28.244671 0-28.244671-28.244671l0 0q0-28.244671 28.244671-28.244671Z" fill="#6AA9FF" p-id="125114"></path><path d="M634.751905 625.71361m28.244671 0l244.787148 0q28.244671 0 28.244671 28.244671l0 0q0 28.244671-28.244671 28.244671l-244.787148 0q-28.244671 0-28.244671-28.244671l0 0q0-28.244671 28.244671-28.244671Z" fill="#6AA9FF" p-id="125115"></path><path d="M344.396688 414.255174m-94.148904 0a94.148903 94.148903 0 1 0 188.297807 0 94.148903 94.148903 0 1 0-188.297807 0Z" fill="#6AA9FF" p-id="125116"></path><path d="M495.034933 659.042322h-301.27649a150.638245 150.638245 0 0 1 77.2021-131.808465 18.829781 18.829781 0 0 1 18.829781 0.941489 91.701032 91.701032 0 0 0 54.606364 17.511696 93.019116 93.019116 0 0 0 54.606363-17.511696 17.511696 17.511696 0 0 1 18.829781-0.941489 150.638245 150.638245 0 0 1 77.202101 131.808465zM193.758443 659.042322h301.27649a56.489342 56.489342 0 0 1-56.489342 56.489342h-188.297807a56.489342 56.489342 0 0 1-56.489341-56.489342z" fill="#6AA9FF" p-id="125117"></path><path d="M626.655099 238.008427l-57.619129-28.809564a9.226593 9.226593 0 0 0-8.285103 0l-57.619129 28.809564a9.41489 9.41489 0 0 1-13.557442-8.473401V18.829781a18.829781 18.829781 0 0 1 18.829781-18.829781h112.978684a18.829781 18.829781 0 0 1 18.82978 18.829781v210.705245a9.41489 9.41489 0 0 1-13.557442 8.473401z" fill="#4A5D82" p-id="125118"></path><path d="M1129.786837 131.808464v790.850786a56.489342 56.489342 0 0 1-56.489342 56.489342H564.893419V0h56.489342a18.829781 18.829781 0 0 1 18.82978 18.829781v56.489341h433.084954a56.489342 56.489342 0 0 1 56.489342 56.489342z" opacity=".4" p-id="125119"></path></svg>