<?xml version="1.0" standalone="no"?><!DOCTYPE svg PUBLIC "-//W3C//DTD SVG 1.1//EN" "http://www.w3.org/Graphics/SVG/1.1/DTD/svg11.dtd"><svg t="1651822756570" class="icon" viewBox="0 0 1024 1024" version="1.1" xmlns="http://www.w3.org/2000/svg" p-id="1951" data-spm-anchor-id="a313x.7781069.0.i2" width="128" height="128" xmlns:xlink="http://www.w3.org/1999/xlink"><defs><style type="text/css">@font-face { font-family: feedback-iconfont; src: url("//at.alicdn.com/t/font_1031158_u69w8yhxdu.woff2?t=1630033759944") format("woff2"), url("//at.alicdn.com/t/font_1031158_u69w8yhxdu.woff?t=1630033759944") format("woff"), url("//at.alicdn.com/t/font_1031158_u69w8yhxdu.ttf?t=1630033759944") format("truetype"); }
</style></defs><path d="M712.2 689.8l18 94.1c0 1.3 0 2.1-0.4 2.7l-0.4 0.5-32 30.7c-1.4 1.4-2.9 1.6-4.3 0.6l-0.7-0.6-32-30.7c-0.7-0.6-0.8-1.8-0.8-2.7v-0.6l18-94.1h34.6zM715.9 646.8c2.5 0 3.4 1.6 3.4 4l-5.9 28.3h-37.1l-5.9-28.3c0-1.6 0.8-4 3.4-4h42.1z" fill="#298DF7" p-id="1952"></path><path d="M895.9 825.7c0-84.1-51.6-159.4-129.5-189.2 44-29.7 65.2-83.5 53.3-135.2-11.6-51.7-54.1-90.8-106.6-98.1V253.7c0-40.7-32.8-73.8-73.1-73.8H201.1c-40.4 0-73.1 33.1-73.1 73.8v516.6c0 40.7 32.7 73.8 73.1 73.8h294.5c9.7 0.3 19.1-3.6 25.9-10.6 6.8-7 10.4-16.5 9.9-26.3 6.2-85.7 78.5-151 163.6-147.6 43.7 0.1 85.6 17.6 116.3 48.7 30.9 31.3 48.2 73.5 48.2 117.4 0.5 9.7 8.6 17.3 18.3 17.4 9.7-0.1 17.7-7.7 18.1-17.4zM676.6 403.1c-52.5 7.3-94.9 46.4-106.6 98.1-11.9 51.8 9.3 105.5 53.3 135.3-71.4 27.6-121.1 93.8-127.9 170.7H201.2c-20.3 0-36.6-16.5-36.6-36.9V253.7c-0.1-20.3 16.3-36.8 36.6-36.9H640c20.3 0.1 36.7 16.6 36.6 36.9v149.4z" fill="#298DF7" p-id="1953"></path><path d="M676.6 338.9c0.1-20.3-16.3-36.8-36.6-36.9H201.1c-20.3 0.1-36.6 16.7-36.6 36.9v431.2c0 20.4 16.4 36.9 36.6 36.9h294.3c6.8-76.9 56.4-143.2 127.9-170.7-44-29.7-65.2-83.5-53.3-135.3 11.6-51.7 54.1-90.8 106.6-98.1v-64z" fill="#CEE8FF" p-id="1954" data-spm-anchor-id="a313x.7781069.0.i7" class="selected"></path><path d="M786.3 530.3c0-51-40.9-92.3-91.4-92.3-50.5 0-91.5 41.3-91.5 92.3s40.9 92.3 91.5 92.3c50.5 0 91.4-41.3 91.4-92.3z" fill="#CEE8FF" p-id="1955" data-spm-anchor-id="a313x.7781069.0.i0" class="selected"></path><path d="M565.4 384H266.8c-11.7 0-21.3-9.6-21.3-21.3 0-11.7 9.6-21.3 21.3-21.3h298.7c11.7 0 21.3 9.6 21.3 21.3 0 11.7-9.6 21.3-21.4 21.3zM480.1 512H266.8c-11.7 0-21.3-9.6-21.3-21.3 0-11.7 9.6-21.3 21.3-21.3h213.3c11.7 0 21.3 9.6 21.3 21.3 0 11.7-9.6 21.3-21.3 21.3zM394.8 640h-128c-11.7 0-21.3-9.6-21.3-21.3 0-11.7 9.6-21.3 21.3-21.3h128c11.7 0 21.3 9.6 21.3 21.3 0 11.7-9.6 21.3-21.3 21.3z" fill="#3C99FE" p-id="1956"></path></svg>