<?xml version="1.0" standalone="no"?><!DOCTYPE svg PUBLIC "-//W3C//DTD SVG 1.1//EN" "http://www.w3.org/Graphics/SVG/1.1/DTD/svg11.dtd"><svg t="1651826071681" class="icon" viewBox="0 0 1024 1024" version="1.1" xmlns="http://www.w3.org/2000/svg" p-id="107399" xmlns:xlink="http://www.w3.org/1999/xlink" width="128" height="128"><defs><style type="text/css">@font-face { font-family: feedback-iconfont; src: url("//at.alicdn.com/t/font_1031158_u69w8yhxdu.woff2?t=1630033759944") format("woff2"), url("//at.alicdn.com/t/font_1031158_u69w8yhxdu.woff?t=1630033759944") format("woff"), url("//at.alicdn.com/t/font_1031158_u69w8yhxdu.ttf?t=1630033759944") format("truetype"); }
</style></defs><path d="M641.28 82.9952H288.6656c-73.5232 0-133.12 59.5968-133.12 133.12v585.2672c0 73.5232 59.5968 133.12 133.12 133.12h457.472c73.5232 0 133.12-59.5968 133.12-133.12V400.0256l-237.9776-317.0304z" fill="#FFD05C" p-id="107400"></path><path d="M681.3696 774.7072h-325.12c-22.6304 0-40.96-18.3296-40.96-40.96s18.3296-40.96 40.96-40.96h325.12c22.6304 0 40.96 18.3296 40.96 40.96s-18.3296 40.96-40.96 40.96zM681.3696 604.6208h-325.12c-22.6304 0-40.96-18.3296-40.96-40.96s18.3296-40.96 40.96-40.96h325.12c22.6304 0 40.96 18.3296 40.96 40.96s-18.3296 40.96-40.96 40.96zM556.2368 434.5856H356.2496c-22.6304 0-40.96-18.3296-40.96-40.96s18.3296-40.96 40.96-40.96h199.9872c22.6304 0 40.96 18.3296 40.96 40.96s-18.3296 40.96-40.96 40.96z" fill="#FFFFFF" p-id="107401"></path><path d="M735.4368 400.128c-52.0192 0-94.208-42.1888-94.208-94.208V82.9952h0.1024l237.9264 317.0816v0.1024h-143.8208z" fill="#FCA235" p-id="107402"></path></svg>