<?xml version="1.0" standalone="no"?><!DOCTYPE svg PUBLIC "-//W3C//DTD SVG 1.1//EN" "http://www.w3.org/Graphics/SVG/1.1/DTD/svg11.dtd"><svg t="1651823624561" class="icon" viewBox="0 0 1092 1024" version="1.1" xmlns="http://www.w3.org/2000/svg" p-id="10951" xmlns:xlink="http://www.w3.org/1999/xlink" width="136.5" height="128"><defs><style type="text/css">@font-face { font-family: feedback-iconfont; src: url("//at.alicdn.com/t/font_1031158_u69w8yhxdu.woff2?t=1630033759944") format("woff2"), url("//at.alicdn.com/t/font_1031158_u69w8yhxdu.woff?t=1630033759944") format("woff"), url("//at.alicdn.com/t/font_1031158_u69w8yhxdu.ttf?t=1630033759944") format("truetype"); }
</style></defs><path d="M33.860267 701.508267a33.860267 33.860267 0 1 1 0-67.720534h174.762666a33.860267 33.860267 0 1 1 0 67.720534H33.860267z m0-354.440534a33.860267 33.860267 0 1 1 0-67.720533h174.762666a33.860267 33.860267 0 1 1 0 67.720533H33.860267z m931.703466 62.805334a33.860267 33.860267 0 0 1-33.860266-33.860267V151.552c0-43.144533-34.952533-78.097067-78.097067-78.097067h-615.765333c-43.144533 0-78.097067 34.952533-78.097067 78.097067v71.816533a33.860267 33.860267 0 1 1-67.720533 0V151.552c0-80.554667 65.536-146.090667 145.8176-146.090667h615.765333c80.554667 0 146.090667 65.536 146.090667 146.090667v224.187733a33.450667 33.450667 0 0 1-9.8304 24.029867 35.498667 35.498667 0 0 1-24.302934 10.103467z m-839.68 202.069333a33.860267 33.860267 0 0 1-33.860266-33.860267V402.500267a33.860267 33.860267 0 1 1 67.720533 0v175.581866a34.065067 34.065067 0 0 1-33.860267 33.860267z m111.957334 367.0016c-80.554667 0-145.8176-65.536-145.8176-146.090667v-75.912533a33.860267 33.860267 0 1 1 67.720533 0v75.912533c0 43.144533 34.952533 78.097067 78.097067 78.097067h615.765333c43.144533 0 78.097067-34.952533 78.097067-78.097067V604.5696a33.860267 33.860267 0 1 1 67.720533 0v228.283733a145.8176 145.8176 0 0 1-145.8176 146.090667h-615.765333z" fill="#5584FF" p-id="10952"></path><path d="M969.9328 437.725867a54.272 54.272 0 1 0-0.068267 108.544 54.272 54.272 0 0 0 0.068267-108.544z m0 176.674133a122.197333 122.197333 0 0 1 0-244.394667 122.402133 122.402133 0 0 1 86.562133 208.622934c-23.210667 22.9376-53.794133 35.771733-86.562133 35.771733zM378.4704 701.508267a33.860267 33.860267 0 1 1 0-67.720534h356.625067a33.860267 33.860267 0 1 1 0 67.720534H378.4704z m0-177.220267a33.860267 33.860267 0 1 1 0-67.720533h356.625067a33.860267 33.860267 0 1 1 0 67.720533H378.4704z m0-177.220267a33.860267 33.860267 0 1 1 0-67.720533h356.625067a33.860267 33.860267 0 1 1 0 67.720533H378.4704z" fill="#5584FF" p-id="10953"></path></svg>