<?xml version="1.0" standalone="no"?><!DOCTYPE svg PUBLIC "-//W3C//DTD SVG 1.1//EN" "http://www.w3.org/Graphics/SVG/1.1/DTD/svg11.dtd"><svg t="1651823908798" class="icon" viewBox="0 0 1024 1024" version="1.1" xmlns="http://www.w3.org/2000/svg" p-id="18299" xmlns:xlink="http://www.w3.org/1999/xlink" width="128" height="128"><defs><style type="text/css">@font-face { font-family: feedback-iconfont; src: url("//at.alicdn.com/t/font_1031158_u69w8yhxdu.woff2?t=1630033759944") format("woff2"), url("//at.alicdn.com/t/font_1031158_u69w8yhxdu.woff?t=1630033759944") format("woff"), url("//at.alicdn.com/t/font_1031158_u69w8yhxdu.ttf?t=1630033759944") format("truetype"); }
</style></defs><path d="M325.02 304.13c0 103.582 84.117 187.574 187.907 187.574s187.907-83.992 187.907-187.574c0-103.581-84.117-187.573-187.907-187.573S325.021 200.549 325.021 304.13z" fill="#A5E8D0" p-id="18300"></path><path d="M508.171 706.688c-90.195 0-174.848-34.246-240.012-94.38-71.779 67.045-115.266 145.306-130.809 243.41-0.698 4.938 0.052 7.655 1.219 9.033 0.983 1.162 2.949 2.051 7.474 2.051h729.043c6.833 0 9.713-3.174 8.734-10.775-17.102-99.592-61.781-177.916-135.35-243.983-65.203 60.298-149.971 94.644-240.299 94.644z m274.389-164.48c89.335 74.742 153.146 170.607 175.48 302.218 7.977 53.62-30.31 97.49-82.954 97.49H146.043c-54.24 0-90.931-43.87-82.955-97.49 20.739-131.61 84.55-227.476 170.695-302.218 22.334-19.498 54.24-16.248 74.979 4.875 51.048 51.994 121.24 84.49 199.41 84.49 78.168 0 148.36-32.496 199.41-84.49 20.738-21.123 52.644-22.748 74.978-4.875z" fill="#4CA7FF" p-id="18301"></path></svg>