<?xml version="1.0" standalone="no"?><!DOCTYPE svg PUBLIC "-//W3C//DTD SVG 1.1//EN" "http://www.w3.org/Graphics/SVG/1.1/DTD/svg11.dtd"><svg t="1651826223763" class="icon" viewBox="0 0 1103 1024" version="1.1" xmlns="http://www.w3.org/2000/svg" p-id="112035" xmlns:xlink="http://www.w3.org/1999/xlink" width="137.875" height="128"><defs><style type="text/css">@font-face { font-family: feedback-iconfont; src: url("//at.alicdn.com/t/font_1031158_u69w8yhxdu.woff2?t=1630033759944") format("woff2"), url("//at.alicdn.com/t/font_1031158_u69w8yhxdu.woff?t=1630033759944") format("woff"), url("//at.alicdn.com/t/font_1031158_u69w8yhxdu.ttf?t=1630033759944") format("truetype"); }
</style></defs><path d="M370.984384 993.264225h-21.658571c-0.017241 0 9.788381 2.137841 21.658571 0z m390.630109-0.017241c-57.463098 0.017241-62.484439-47.674717-62.837872-59.932822v-73.552938H412.137824v70.673749c0 46.321326-22.986101 59.596629-41.16637 62.812011" fill="#F0F0FF" p-id="112036"></path><path d="M359.066782 1011.578109c-8.732391 0-18.757831-1.57752-23.546422-7.986733l-20.632753-27.567805h54.428744c7.685021-1.499937 25.58513-6.991085 25.58513-45.588598v-87.914403h321.120103v90.534982c1.189605 37.360496 29.037571 42.955088 45.571358 42.955089h0.021551l0.00862 34.481307h-0.034481c-57.450168 0-79.022536-41.299986-80.039734-76.677807l-0.008621-0.495669v-56.312285H429.378478v53.433096c0 21.033597-5.396325 70.902188-55.342498 79.781125v0.01724c-2.155082 0.387915-8.17207 1.340461-14.969198 1.340461z" fill="#6E6E96" p-id="112037"></path><path d="M52.829673 753.744135V121.525057c0-43.192147 35.33472-78.535487 78.535487-78.535487h848.188435c43.192147 0 78.535487 35.34334 78.535487 78.535487v632.219078" fill="#C3E6D7" p-id="112038"></path><path d="M1058.097703 690.914883v90.310853c0 43.192147-35.33903 78.535487-78.535488 78.535488H131.36947c-43.192147 0-78.535487-35.34765-78.535487-78.535488v-90.310853h1005.26372z" fill="#F0F0FF" p-id="112039"></path><path d="M463.545143 680.630833L1058.093392 53.29086v202.612161l-394.323918 424.727812z" fill="#DEEFFF" opacity=".31" p-id="112040"></path><path d="M1058.093392 255.903021l-394.323918 424.727812h394.323918z" fill="#FFFFFF" opacity=".31" p-id="112041"></path><path d="M979.562215 877.001877H131.36947c-52.808122 0-95.776141-42.963709-95.776141-95.776141v-107.551507h1039.740717v107.551507c0.00431 52.812432-42.959399 95.776141-95.771831 95.776141z m-909.487578-168.846341v73.0702c0 33.800301 27.494532 61.294834 61.294833 61.294834h848.192745c33.800301 0 61.294834-27.494532 61.294834-61.294834v-73.0702H70.074637z" fill="#6E6E96" p-id="112042"></path><path d="M1075.329736 753.744135h-34.481307V121.525057c0-33.795991-27.494532-61.294834-61.294834-61.294834H131.36516c-33.795991 0-61.294834 27.494532-61.294834 61.294834v632.219078h-34.481307V121.525057c0-52.808122 42.963709-95.776141 95.776141-95.776141h848.188435c52.812432 0 95.776141 42.963709 95.776141 95.776141v632.219078z" fill="#6E6E96" p-id="112043"></path><path d="M52.829673 642.222967h1005.255099v31.451262H52.829673zM412.137824 859.761224h286.643107v50.13151H412.137824z" fill="#6E6E96" opacity=".15" p-id="112044"></path><path d="M585.05727 788.022864h-66.255832a17.240654 17.240654 0 0 1 0-34.481307h66.255832a17.240654 17.240654 0 0 1 0 34.481307zM783.337716 1010.504878H324.697539a17.240654 17.240654 0 0 1 0-34.481307h458.640177a17.240654 17.240654 0 0 1 0 34.481307z" fill="#6E6E96" p-id="112045"></path><path d="M979.562215 800.789568H131.36947c-43.192147 0-78.535487-35.34334-78.535487-78.535487v52.411587c0 43.192147 35.326099 78.539797 78.535487 78.539797h848.192745c43.192147 0 78.548418-35.330409 78.548418-78.539797v-52.411587c-0.01293 43.205078-35.369201 78.535487-78.548418 78.535487z" fill="#6E6E96" opacity=".15" p-id="112046"></path><path d="M863.002467 419.434931c0 22.731802-18.589735 41.356018-41.356018 41.356018H285.522464c-22.744732 0-41.373258-18.594045-41.373258-41.356018V354.804031c0-22.740422 18.606975-41.351708 41.373258-41.351708h536.128295c22.744732 0 41.356018 18.594045 41.356018 41.351708l-0.00431 64.6309z" fill="#FFFFFF" p-id="112047"></path><path d="M821.646449 478.031602H285.522464c-32.321915 0-58.613912-26.287687-58.613912-58.596671V354.804031c0-32.308985 26.291997-58.592361 58.613912-58.592362h536.128295c32.308985 0 58.596671 26.283376 58.596671 58.592362l-0.00431 64.63521c0 32.308985-26.287687 58.592361-58.596671 58.592361zM285.522464 330.692977a24.149846 24.149846 0 0 0-24.132605 24.111054v64.6309a24.154156 24.154156 0 0 0 24.132605 24.115364H821.646449a24.141225 24.141225 0 0 0 24.115364-24.115364l0.00431-64.63521a24.136915 24.136915 0 0 0-24.115364-24.106744H285.522464z" fill="#6E6E96" p-id="112048"></path><path d="M821.646449 324.141528H285.522464c-22.744732 0-41.373258 18.606975-41.373258 41.368949v31.003005c0-22.731802 18.606975-41.360328 41.373258-41.360328h536.128295c22.744732 0 41.356018 18.611286 41.356018 41.360328v-31.003005c-0.00431-22.761973-18.615596-41.368948-41.360328-41.368949z" fill="#6E6E96" opacity=".15" p-id="112049"></path><path d="M346.571619 401.293453H294.190203a6.465245 6.465245 0 1 1 0-12.93049h52.381416a6.465245 6.465245 0 1 1 0 12.93049z" fill="#D0D0F2" p-id="112050"></path><path d="M307.284479 423.982153a6.473865 6.473865 0 0 1-5.594592-9.697867l26.188553-45.36447a6.465245 6.465245 0 0 1 11.197804 6.465245l-26.188552 45.36447a6.465245 6.465245 0 0 1-5.603213 3.232622z" fill="#D0D0F2" p-id="112051"></path><path d="M333.490273 423.982153a6.456625 6.456625 0 0 1-5.603213-3.232622l-26.192863-45.36447a6.465245 6.465245 0 1 1 11.197805-6.465245l26.192863 45.36447a6.465245 6.465245 0 0 1-5.594592 9.697867z" fill="#D0D0F2" p-id="112052"></path><path d="M433.412791 401.293453H381.035685a6.465245 6.465245 0 1 1 0-12.93049h52.377106a6.465245 6.465245 0 1 1 0 12.93049z" fill="#D0D0F2" p-id="112053"></path><path d="M394.121341 423.982153a6.465245 6.465245 0 0 1-5.594592-9.702178l26.192863-45.364469a6.465245 6.465245 0 0 1 11.197805 6.465245L399.724554 420.745221a6.448004 6.448004 0 0 1-5.603213 3.236932z" fill="#D0D0F2" p-id="112054"></path><path d="M420.327135 423.982153a6.456625 6.456625 0 0 1-5.603213-3.232622l-26.192863-45.36447a6.465245 6.465245 0 1 1 11.197805-6.465245l26.192863 45.36447a6.465245 6.465245 0 0 1-5.594592 9.697867z" fill="#D0D0F2" p-id="112055"></path><path d="M525.016693 401.293453h-52.381415a6.465245 6.465245 0 1 1 0-12.93049h52.381415a6.465245 6.465245 0 1 1 0 12.93049z" fill="#D0D0F2" p-id="112056"></path><path d="M485.720934 423.982153a6.465245 6.465245 0 0 1-5.594592-9.702178l26.192863-45.364469a6.465245 6.465245 0 0 1 11.197804 6.465245l-26.192863 45.36447a6.448004 6.448004 0 0 1-5.603212 3.236932z" fill="#D0D0F2" p-id="112057"></path><path d="M511.926727 423.982153a6.456625 6.456625 0 0 1-5.603212-3.232622l-26.192863-45.36447a6.465245 6.465245 0 1 1 11.197804-6.465245l26.192863 45.36447a6.465245 6.465245 0 0 1-5.594592 9.697867z" fill="#D0D0F2" p-id="112058"></path><path d="M613.03023 399.935752h-52.381416a6.465245 6.465245 0 1 1 0-12.930491h52.381416a6.465245 6.465245 0 1 1 0 12.930491z" fill="#D0D0F2" p-id="112059"></path><path d="M573.747401 422.628762a6.465245 6.465245 0 0 1-5.594592-9.697868l26.184242-45.36878a6.465245 6.465245 0 1 1 11.197805 6.465245l-26.184243 45.36878c-1.198225 2.068878-3.374858 3.232623-5.603212 3.232623z" fill="#D0D0F2" p-id="112060"></path><path d="M599.940264 422.628762a6.465245 6.465245 0 0 1-5.603213-3.232623l-26.184242-45.36878a6.465245 6.465245 0 1 1 11.197804-6.465245l26.184243 45.36878a6.465245 6.465245 0 0 1-5.594592 9.697868z" fill="#D0D0F2" p-id="112061"></path><path d="M699.871402 399.935752h-52.377105a6.465245 6.465245 0 1 1 0-12.930491h52.377105a6.465245 6.465245 0 1 1 0 12.930491z" fill="#D0D0F2" p-id="112062"></path><path d="M660.579953 422.628762a6.465245 6.465245 0 0 1-5.594592-9.702178l26.192863-45.36878a6.465245 6.465245 0 1 1 11.197804 6.465245l-26.192863 45.36878a6.465245 6.465245 0 0 1-5.603212 3.236933z" fill="#D0D0F2" p-id="112063"></path><path d="M686.781436 422.628762a6.465245 6.465245 0 0 1-5.603212-3.232623l-26.192863-45.36878a6.465245 6.465245 0 1 1 11.197804-6.465245l26.192863 45.36878a6.465245 6.465245 0 0 1-5.594592 9.697868z" fill="#D0D0F2" p-id="112064"></path><path d="M791.470995 399.935752h-52.377106a6.465245 6.465245 0 1 1 0-12.930491h52.377106a6.465245 6.465245 0 1 1 0 12.930491z" fill="#D0D0F2" p-id="112065"></path><path d="M752.183855 422.628762a6.465245 6.465245 0 0 1-5.594592-9.697868l26.188553-45.36878a6.465245 6.465245 0 1 1 11.197805 6.465245l-26.188553 45.36878c-1.198225 2.068878-3.374858 3.232623-5.603213 3.232623z" fill="#D0D0F2" p-id="112066"></path><path d="M778.381029 422.628762c-2.232665 0-4.404987-1.163744-5.603213-3.232623l-26.188553-45.36878a6.465245 6.465245 0 1 1 11.197805-6.465245l26.188553 45.36878a6.465245 6.465245 0 0 1-5.594592 9.697868z" fill="#D0D0F2" p-id="112067"></path></svg>