<?xml version="1.0" standalone="no"?><!DOCTYPE svg PUBLIC "-//W3C//DTD SVG 1.1//EN" "http://www.w3.org/Graphics/SVG/1.1/DTD/svg11.dtd"><svg t="1651823693938" class="icon" viewBox="0 0 1024 1024" version="1.1" xmlns="http://www.w3.org/2000/svg" p-id="11215" xmlns:xlink="http://www.w3.org/1999/xlink" width="128" height="128"><defs><style type="text/css">@font-face { font-family: feedback-iconfont; src: url("//at.alicdn.com/t/font_1031158_u69w8yhxdu.woff2?t=1630033759944") format("woff2"), url("//at.alicdn.com/t/font_1031158_u69w8yhxdu.woff?t=1630033759944") format("woff"), url("//at.alicdn.com/t/font_1031158_u69w8yhxdu.ttf?t=1630033759944") format("truetype"); }
</style></defs><path d="M665.729808 153.544368V0h-102.733792v153.544368h-255.90728V0H204.725824v153.544368H0v153.544368h870.455632V153.544368h-204.725824zM0 358.270192h255.90728v255.90728H0zM562.996016 430.220934a205.096704 205.096704 0 0 0-51.181456 132.775082 170.604853 170.604853 0 0 0 5.192322 51.181456H307.088736v-255.90728h255.90728zM0 665.358928h255.90728v255.90728H0zM562.996016 696.141978a363.833394 363.833394 0 0 0-189.148859 225.49511h-66.758421v-256.27816h230.316552z" fill="#A6C5F6" p-id="11216"></path><path d="M562.996016 562.996016A153.915248 153.915248 0 1 0 716.911264 407.968127a153.915248 153.915248 0 0 0-153.915248 153.544368z" fill="#4E8CEE" p-id="11217"></path><path d="M716.911264 716.911264A308.201376 308.201376 0 0 0 407.968127 1024h616.031873a307.830496 307.830496 0 0 0-307.088736-307.088736z" fill="#4E8CEE" p-id="11218"></path></svg>