<?xml version="1.0" standalone="no"?><!DOCTYPE svg PUBLIC "-//W3C//DTD SVG 1.1//EN" "http://www.w3.org/Graphics/SVG/1.1/DTD/svg11.dtd"><svg t="1651827025156" class="icon" viewBox="0 0 1024 1024" version="1.1" xmlns="http://www.w3.org/2000/svg" p-id="147710" xmlns:xlink="http://www.w3.org/1999/xlink" width="128" height="128"><defs><style type="text/css">@font-face { font-family: feedback-iconfont; src: url("//at.alicdn.com/t/font_1031158_u69w8yhxdu.woff2?t=1630033759944") format("woff2"), url("//at.alicdn.com/t/font_1031158_u69w8yhxdu.woff?t=1630033759944") format("woff"), url("//at.alicdn.com/t/font_1031158_u69w8yhxdu.ttf?t=1630033759944") format("truetype"); }
</style></defs><path d="M928 608h-46.72l32-32L832 492.48V192a96 96 0 0 0-96-96H192a96 96 0 0 0-96 96v480a96 96 0 0 0 96 96h9.6a224 224 0 0 0 344.64 118.08l23.68 23.36 21.44-13.12 16.64-15.04V928h160v-46.72l32 32 108.16-108.16-12.16-20.48-14.72-16.64H928z" fill="#FFFFFF" p-id="147711"></path><path d="M416 704m-192 0a192 192 0 1 0 384 0 192 192 0 1 0-384 0Z" fill="#E9EAEB" p-id="147712"></path><path d="M128 288h672v448H192a64 64 0 0 1-64-64V288z" fill="#FFFFFF" p-id="147713"></path><path d="M192 128h544a64 64 0 0 1 64 64v96H128V192a64 64 0 0 1 64-64z" fill="#A3D4FF" p-id="147714"></path><path d="M608 192h96v32h-96z" fill="#2A5082" p-id="147715"></path><path d="M736 128H192a64 64 0 0 0-64 64v480a64 64 0 0 0 64 64h224v-32H192a32 32 0 0 1-32-32V192a32 32 0 0 1 32-32h544a32 32 0 0 1 32 32v224h32V192a64 64 0 0 0-64-64z" fill="#2A5082" p-id="147716"></path><path d="M704 256H192v32h512V256zM416 352H288v32h128v-32zM256 352H192v32h64v-32zM576 448H288v32h288v-32zM256 448H192v32h64v-32zM352 544H288v32h64v-32zM256 544H192v32h64v-32z" fill="#2A5082" p-id="147717"></path><path d="M896 736v-96h-72.96a102.4 102.4 0 0 0-5.44-13.76L869.12 576 800 506.88l-51.52 51.52a102.4 102.4 0 0 0-13.76-5.44V480H640v72.96a102.4 102.4 0 0 0-13.76 5.44L576 506.88 506.88 576l51.52 51.52a102.4 102.4 0 0 0-5.44 13.76H480v96h72.96a102.4 102.4 0 0 0 5.44 13.76L506.88 800 576 869.12l51.52-51.52a102.4 102.4 0 0 0 13.76 5.44V896h96v-72.96a102.4 102.4 0 0 0 13.76-5.44L800 869.12 869.12 800l-51.52-51.52a102.4 102.4 0 0 0 5.44-13.76z m-208 16a64 64 0 1 1 64-64 64 64 0 0 1-64 64z" fill="#A3D4FF" p-id="147718"></path><path d="M704 512v64l21.44 7.68 10.56 4.16 20.48 9.92 16-16 28.8-28.8 22.4 22.4-28.8 28.8-16 16 9.92 20.48c1.6 3.52 2.88 7.04 4.16 10.56L800 672h64v32h-64l-7.68 21.44c0 3.52-2.56 7.04-4.16 10.56l-9.92 20.48 16 16 28.8 28.8-22.4 22.4-28.8-28.8-16-16-20.48 9.92-10.56 4.16L704 800v64h-32v-64l-21.44-7.68-10.56-3.52-20.48-9.92-16 16-28.8 28.8-22.4-22.4 28.8-28.8 16-16-9.92-20.48c-1.6-3.52-2.88-7.04-4.16-10.56L576 704h-64v-32h64l7.68-21.44c0-3.52 2.56-7.04 4.16-10.56l9.92-20.48-16-16-28.8-28.8 22.4-22.4 28.8 28.8 16 16 20.48-9.92 10.56-4.16L672 576v-64h32m32-32h-96v72.96a102.4 102.4 0 0 0-13.76 5.44L576 506.88 506.88 576l51.52 51.52a102.4 102.4 0 0 0-5.44 13.76H480v96h72.96a102.4 102.4 0 0 0 5.44 13.76L506.88 800 576 869.12l51.52-51.52a102.4 102.4 0 0 0 13.76 5.44V896h96v-72.96a102.4 102.4 0 0 0 13.76-5.44L800 869.12 869.12 800l-51.52-51.52a102.4 102.4 0 0 0 5.44-13.76H896V640h-72.96a102.4 102.4 0 0 0-5.44-13.76L869.12 576 800 506.88l-51.52 51.52a102.4 102.4 0 0 0-13.76-5.44V480z" fill="#2A5082" p-id="147719"></path><path d="M688 656a32 32 0 1 1-32 32 32 32 0 0 1 32-32m0-32a64 64 0 1 0 64 64 64 64 0 0 0-64-64z" fill="#2A5082" p-id="147720"></path></svg>