<?xml version="1.0" standalone="no"?><!DOCTYPE svg PUBLIC "-//W3C//DTD SVG 1.1//EN" "http://www.w3.org/Graphics/SVG/1.1/DTD/svg11.dtd"><svg t="1651828950838" class="icon" viewBox="0 0 1024 1024" version="1.1" xmlns="http://www.w3.org/2000/svg" p-id="18550" xmlns:xlink="http://www.w3.org/1999/xlink" width="128" height="128"><defs><style type="text/css">@font-face { font-family: feedback-iconfont; src: url("//at.alicdn.com/t/font_1031158_u69w8yhxdu.woff2?t=1630033759944") format("woff2"), url("//at.alicdn.com/t/font_1031158_u69w8yhxdu.woff?t=1630033759944") format("woff"), url("//at.alicdn.com/t/font_1031158_u69w8yhxdu.ttf?t=1630033759944") format("truetype"); }
</style></defs><path d="M380.8768 449.7408H273.0496c-42.9056 0-77.6704-34.7648-77.6704-77.6704V264.2432c0-42.9056 34.7648-77.6704 77.6704-77.6704h107.8272c42.9056 0 77.6704 34.7648 77.6704 77.6704v107.8272c-0.0512 42.9056-34.816 77.6704-77.6704 77.6704z" fill="#56E5BE" p-id="18551"></path><path d="M380.8768 449.7408H314.4704c-42.9056 0-77.6704-34.7648-77.6704-77.6704V305.7152c0-42.9056 34.7648-77.6704 77.6704-77.6704h66.3552c42.9056 0 77.6704 34.7648 77.6704 77.6704v66.3552c0 42.9056-34.7648 77.6704-77.6192 77.6704z" fill="#50DDB8" p-id="18552"></path><path d="M398.4384 449.7408H334.6432c-33.1776 0-60.0576-26.88-60.0576-60.0576V325.888c0-33.1776 26.88-60.0576 60.0576-60.0576h63.7952c33.1776 0 60.0576 26.88 60.0576 60.0576V389.632c0 33.1776-26.88 60.1088-60.0576 60.1088z" fill="#42D3AD" p-id="18553"></path><path d="M820.4288 449.7408h-107.8272c-42.9056 0-77.6704-34.7648-77.6704-77.6704V264.2432c0-42.9056 34.7648-77.6704 77.6704-77.6704h107.8272c42.9056 0 77.6704 34.7648 77.6704 77.6704v107.8272c0 42.9056-34.7648 77.6704-77.6704 77.6704z" fill="#56E5BE" p-id="18554"></path><path d="M820.4288 449.7408h-66.3552c-42.9056 0-77.6704-34.7648-77.6704-77.6704V305.7152c0-42.9056 34.7648-77.6704 77.6704-77.6704h66.3552c42.9056 0 77.6704 34.7648 77.6704 77.6704v66.3552c0 42.9056-34.7648 77.6704-77.6704 77.6704z" fill="#50DDB8" p-id="18555"></path><path d="M837.9904 449.7408h-63.7952c-33.1776 0-60.0576-26.88-60.0576-60.0576V325.888c0-33.1776 26.88-60.0576 60.0576-60.0576h63.7952c33.1776 0 60.0576 26.88 60.0576 60.0576V389.632c0.0512 33.1776-26.88 60.1088-60.0576 60.1088z" fill="#42D3AD" p-id="18556"></path><path d="M380.8768 890.0096H273.0496c-42.9056 0-77.6704-34.7648-77.6704-77.6704V704.512c0-42.9056 34.7648-77.6704 77.6704-77.6704h107.8272c42.9056 0 77.6704 34.7648 77.6704 77.6704v107.8272c-0.0512 42.9056-34.816 77.6704-77.6704 77.6704z" fill="#56E5BE" p-id="18557"></path><path d="M380.8768 890.0096H314.4704c-42.9056 0-77.6704-34.7648-77.6704-77.6704V745.984c0-42.9056 34.7648-77.6704 77.6704-77.6704h66.3552c42.9056 0 77.6704 34.7648 77.6704 77.6704v66.3552c0 42.9056-34.7648 77.6704-77.6192 77.6704z" fill="#50DDB8" p-id="18558"></path><path d="M398.4384 890.0096H334.6432c-33.1776 0-60.0576-26.88-60.0576-60.0576v-63.7952c0-33.1776 26.88-60.0576 60.0576-60.0576h63.7952c33.1776 0 60.0576 26.88 60.0576 60.0576v63.7952c0 33.1776-26.88 60.0576-60.0576 60.0576z" fill="#42D3AD" p-id="18559"></path><path d="M820.4288 890.0096h-107.8272c-42.9056 0-77.6704-34.7648-77.6704-77.6704V704.512c0-42.9056 34.7648-77.6704 77.6704-77.6704h107.8272c42.9056 0 77.6704 34.7648 77.6704 77.6704v107.8272c0 42.9056-34.7648 77.6704-77.6704 77.6704z" fill="#56E5BE" p-id="18560"></path><path d="M820.4288 890.0096h-66.3552c-42.9056 0-77.6704-34.7648-77.6704-77.6704V745.984c0-42.9056 34.7648-77.6704 77.6704-77.6704h66.3552c42.9056 0 77.6704 34.7648 77.6704 77.6704v66.3552c0 42.9056-34.7648 77.6704-77.6704 77.6704z" fill="#50DDB8" p-id="18561"></path><path d="M837.9904 890.0096h-63.7952c-33.1776 0-60.0576-26.88-60.0576-60.0576v-63.7952c0-33.1776 26.88-60.0576 60.0576-60.0576h63.7952c33.1776 0 60.0576 26.88 60.0576 60.0576v63.7952c0.0512 33.1776-26.88 60.0576-60.0576 60.0576z" fill="#42D3AD" p-id="18562"></path><path d="M380.8768 480.4608H210.7904C151.04 480.4608 102.4 431.8208 102.4 372.0704V201.984c0-59.7504 48.5888-108.3904 108.3904-108.3904h170.0864c59.7504 0 108.3904 48.64 108.3904 108.3904v170.0864c-0.0512 59.7504-48.64 108.3904-108.3904 108.3904zM210.7904 155.0848c-25.856 0-46.9504 21.0432-46.9504 46.9504v170.0864c0 25.856 21.0432 46.9504 46.9504 46.9504h170.0864c25.856 0 46.9504-21.0432 46.9504-46.9504V201.984c0-25.856-21.0432-46.9504-46.9504-46.9504H210.7904zM380.8768 919.5008H210.7904C151.04 919.5008 102.4 870.912 102.4 811.1104V641.024c0-59.7504 48.5888-108.3904 108.3904-108.3904h170.0864c59.7504 0 108.3904 48.64 108.3904 108.3904v170.0864c-0.0512 59.8016-48.64 108.3904-108.3904 108.3904z m-170.0864-325.376c-25.856 0-46.9504 21.0432-46.9504 46.9504v170.0864c0 25.856 21.0432 46.9504 46.9504 46.9504h170.0864c25.856 0 46.9504-21.0432 46.9504-46.9504v-170.0864c0-25.856-21.0432-46.9504-46.9504-46.9504H210.7904zM822.1696 480.4608h-170.0864c-59.7504 0-108.3904-48.64-108.3904-108.3904V201.984c0-59.7504 48.5888-108.3904 108.3904-108.3904h170.0864c59.7504 0 108.3904 48.64 108.3904 108.3904v170.0864c-0.0512 59.7504-48.64 108.3904-108.3904 108.3904z m-170.0864-325.376c-25.856 0-46.9504 21.0432-46.9504 46.9504v170.0864c0 25.856 21.0432 46.9504 46.9504 46.9504h170.0864c25.856 0 46.9504-21.0432 46.9504-46.9504V201.984c0-25.856-21.0432-46.9504-46.9504-46.9504h-170.0864zM822.1696 919.5008h-170.0864c-59.7504 0-108.3904-48.5888-108.3904-108.3904V641.024c0-59.7504 48.5888-108.3904 108.3904-108.3904h170.0864c59.7504 0 108.3904 48.64 108.3904 108.3904v170.0864c-0.0512 59.8016-48.64 108.3904-108.3904 108.3904z m-170.0864-325.376c-25.856 0-46.9504 21.0432-46.9504 46.9504v170.0864c0 25.856 21.0432 46.9504 46.9504 46.9504h170.0864c25.856 0 46.9504-21.0432 46.9504-46.9504v-170.0864c0-25.856-21.0432-46.9504-46.9504-46.9504h-170.0864z" fill="#2E3138" p-id="18563"></path></svg>