<?xml version="1.0" standalone="no"?><!DOCTYPE svg PUBLIC "-//W3C//DTD SVG 1.1//EN" "http://www.w3.org/Graphics/SVG/1.1/DTD/svg11.dtd"><svg t="1651825313466" class="icon" viewBox="0 0 1153 1024" version="1.1" xmlns="http://www.w3.org/2000/svg" p-id="74204" xmlns:xlink="http://www.w3.org/1999/xlink" width="144.125" height="128"><defs><style type="text/css">@font-face { font-family: feedback-iconfont; src: url("//at.alicdn.com/t/font_1031158_u69w8yhxdu.woff2?t=1630033759944") format("woff2"), url("//at.alicdn.com/t/font_1031158_u69w8yhxdu.woff?t=1630033759944") format("woff"), url("//at.alicdn.com/t/font_1031158_u69w8yhxdu.ttf?t=1630033759944") format("truetype"); }
</style></defs><path d="M768 0a89.6 89.6 0 0 1 89.5488 86.528L857.6 89.6v204.8a38.4 38.4 0 0 1-76.736 2.2528L780.8 294.4V89.6a12.8 12.8 0 0 0-11.3024-12.7104L768 76.8H89.6a12.8 12.8 0 0 0-12.7104 11.3024L76.8 89.6v729.6a12.8 12.8 0 0 0 11.3024 12.7104L89.6 832h320a38.4 38.4 0 0 1 2.2528 76.736L409.6 908.8H89.6a89.6 89.6 0 0 1-89.5488-86.528L0 819.2V89.6a89.6 89.6 0 0 1 86.528-89.5488L89.6 0h678.4z m-38.4 371.2c91.904 0 166.4 74.496 166.4 166.4 0 51.584-23.4752 97.7024-60.3392 128.2304C909.5296 704.1792 960 781.3888 960 870.4a38.4 38.4 0 0 1-38.4 38.4H537.6a38.4 38.4 0 0 1-38.4-38.4c0-89.0112 50.4704-166.2208 124.352-204.5952A165.9648 165.9648 0 0 1 563.2 537.6c0-91.904 74.496-166.4 166.4-166.4z m0 345.6c-70.4768 0-129.8688 47.4624-147.9424 112.1664l-0.8192 3.0336h297.5104l-0.8064-3.0336c-17.7408-63.5008-75.2768-110.4-144.0384-112.128z m0-268.8a89.6 89.6 0 1 0 0 179.2 89.6 89.6 0 0 0 0-179.2z" fill="#303133" p-id="74205"></path><path d="M460.8 544a38.4 38.4 0 0 1 2.2528 76.736L460.8 620.8H204.8a38.4 38.4 0 0 1-2.2528-76.736L204.8 544h256zM588.8 256a38.4 38.4 0 0 1 2.2528 76.736L588.8 332.8H204.8a38.4 38.4 0 0 1-2.2528-76.736L204.8 256h384z" fill="#FF6F26" p-id="74206"></path></svg>