<?xml version="1.0" standalone="no"?><!DOCTYPE svg PUBLIC "-//W3C//DTD SVG 1.1//EN" "http://www.w3.org/Graphics/SVG/1.1/DTD/svg11.dtd"><svg t="1651823514733" class="icon" viewBox="0 0 1024 1024" version="1.1" xmlns="http://www.w3.org/2000/svg" p-id="10117" xmlns:xlink="http://www.w3.org/1999/xlink" width="128" height="128"><defs><style type="text/css">@font-face { font-family: feedback-iconfont; src: url("//at.alicdn.com/t/font_1031158_u69w8yhxdu.woff2?t=1630033759944") format("woff2"), url("//at.alicdn.com/t/font_1031158_u69w8yhxdu.woff?t=1630033759944") format("woff"), url("//at.alicdn.com/t/font_1031158_u69w8yhxdu.ttf?t=1630033759944") format("truetype"); }
</style></defs><path d="M848 255.9h-43.2L562.2 111.6c0.2-1.6 0.3-3.2 0.3-4.8 0-16.9-9-32.6-23.7-41.1s-32.7-8.5-47.4 0c-14.7 8.5-23.7 24.1-23.7 41.1v0.5L196 255.9h-18.6c-62.1 0-112.7 50.6-112.7 112.7v483.3c0 62.1 50.6 112.7 112.7 112.7H848c62.1 0 112.7-50.6 112.7-112.7V368.6c0-62.1-50.6-112.7-112.7-112.7zM487 145c1.4 1 2.8 2 4.3 2.9 14.7 8.5 32.8 8.5 47.4 0 0.2-0.1 0.5-0.3 0.7-0.5l182.3 108.5H284.4L487 145z m431.3 706.9c0 38.7-31.5 70.3-70.3 70.3H177.4c-38.7 0-70.3-31.5-70.3-70.3V368.6c0-38.7 31.5-70.3 70.3-70.3H848c38.7 0 70.3 31.5 70.3 70.3v483.3z" fill="#5492D6" p-id="10118"></path><path d="M733.2 507.2H267.3c-11.7 0-21.2 9.5-21.2 21.2s9.5 21.2 21.2 21.2h465.9c11.7 0 21.2-9.5 21.2-21.2s-9.5-21.2-21.2-21.2zM544.4 704.4H267.3c-11.7 0-21.2 9.5-21.2 21.2s9.5 21.2 21.2 21.2h277.1c11.7 0 21.2-9.5 21.2-21.2s-9.5-21.2-21.2-21.2z" fill="#5AB4E5" p-id="10119"></path></svg>