<?xml version="1.0" standalone="no"?><!DOCTYPE svg PUBLIC "-//W3C//DTD SVG 1.1//EN" "http://www.w3.org/Graphics/SVG/1.1/DTD/svg11.dtd"><svg t="1651827208589" class="icon" viewBox="0 0 1024 1024" version="1.1" xmlns="http://www.w3.org/2000/svg" p-id="155110" xmlns:xlink="http://www.w3.org/1999/xlink" width="128" height="128"><defs><style type="text/css">@font-face { font-family: feedback-iconfont; src: url("//at.alicdn.com/t/font_1031158_u69w8yhxdu.woff2?t=1630033759944") format("woff2"), url("//at.alicdn.com/t/font_1031158_u69w8yhxdu.woff?t=1630033759944") format("woff"), url("//at.alicdn.com/t/font_1031158_u69w8yhxdu.ttf?t=1630033759944") format("truetype"); }
</style></defs><path d="M320 432.9v240.3c0 51.5 38.6 93.6 85.7 93.6H620c47.2 0 85.7-42.1 85.7-93.6V432.9" fill="#FEE632" p-id="155111"></path><path d="M748.1 465.2L512.9 267.8 277.7 465.2" fill="#FEE632" p-id="155112"></path><path d="M859.9 332.2L824.4 284v-89.7h35.5z" fill="#231815" p-id="155113"></path><path d="M678.9 905.4H334.1c-86.2 0-156.4-75.8-156.4-169V349.8h37v386.6c0 72.8 53.6 132.1 119.5 132.1H679c65.9 0 119.5-59.2 119.5-132.1V349.8h37v386.6c-0.2 93.2-70.3 169-156.6 169z" fill="" p-id="155114"></path><path d="M884.9 420.3c-4.2 0-8.4-1.4-11.9-4.3L506.5 108.3 139.9 416c-7.8 6.6-19.5 5.5-26-2.3-6.6-7.8-5.5-19.5 2.3-26L494.6 70.1c6.9-5.8 16.9-5.8 23.8 0l378.4 317.6c7.8 6.6 8.8 18.2 2.3 26-3.7 4.4-8.9 6.6-14.2 6.6z" fill="#020202" p-id="155115"></path><path d="M506.5 511.5c-53.8 0-97.6-43.8-97.6-97.6s43.8-97.6 97.6-97.6 97.6 43.8 97.6 97.6-43.8 97.6-97.6 97.6z m0-158.1c-33.4 0-60.6 27.2-60.6 60.6s27.2 60.6 60.6 60.6c33.4 0 60.6-27.2 60.6-60.6s-27.2-60.6-60.6-60.6z" fill="#020202" p-id="155116"></path></svg>